<svg width="21" height="21" viewBox="0 0 21 21" fill="none" xmlns="http://www.w3.org/2000/svg">
<g clip-path="url(#clip0)">
<path d="M3.31055 18.7666H17.8916C19.5879 18.7666 20.5723 17.7822 20.5723 15.9014V6.85742C20.5723 4.97656 19.5791 3.99219 17.6807 3.99219H9.5332C8.90039 3.99219 8.52246 3.85156 8.03027 3.44727L7.53809 3.04297C6.91406 2.5332 6.45703 2.36621 5.53418 2.36621H3.04688C1.39453 2.36621 0.418945 3.33301 0.418945 5.1875V15.9014C0.418945 17.791 1.41211 18.7666 3.31055 18.7666ZM2.16797 5.33691C2.16797 4.53711 2.61621 4.11523 3.39844 4.11523H5.06836C5.69238 4.11523 6.06152 4.26465 6.5625 4.66895L7.05469 5.08203C7.66992 5.57422 8.14453 5.75 9.06738 5.75H17.5664C18.375 5.75 18.8232 6.17188 18.8232 7.01562V7.53418H2.16797V5.33691ZM3.4248 17.0176C2.61621 17.0176 2.16797 16.5957 2.16797 15.7432V9.07227H18.8232V15.752C18.8232 16.5957 18.375 17.0176 17.5664 17.0176H3.4248Z" fill="black"/>
</g>
<defs>
<clipPath id="clip0">
<rect width="21" height="21" fill="white"/>
</clipPath>
</defs>
</svg>
