<svg width="27" height="27" viewBox="0 0 27 27" fill="none" xmlns="http://www.w3.org/2000/svg">
<path d="M13.4931 20.1394C17.3812 20.1394 20.5903 16.9303 20.5903 13.0491C20.5903 9.16797 17.3743 5.95881 13.4863 5.95881C9.60513 5.95881 6.40283 9.16797 6.40283 13.0491C6.40283 16.9303 9.61199 20.1394 13.4931 20.1394ZM13.4931 18.7269C10.3457 18.7269 7.82912 16.1966 7.82912 13.0491C7.82912 9.90169 10.3457 7.37825 13.4863 7.37825C16.6337 7.37825 19.164 9.90169 19.1709 13.0491C19.1777 16.1966 16.6406 18.7269 13.4931 18.7269ZM13.452 10.7314C13.98 10.7314 14.3914 10.3131 14.3914 9.79883C14.3914 9.26397 13.98 8.85254 13.452 8.85254C12.9377 8.85254 12.5194 9.26397 12.5194 9.79883C12.5194 10.3131 12.9377 10.7314 13.452 10.7314ZM12.2794 16.7794H15.0634C15.372 16.7794 15.6189 16.56 15.6189 16.2446C15.6189 15.9497 15.372 15.7166 15.0634 15.7166H14.3023V12.48C14.3023 12.0686 14.0966 11.7943 13.7126 11.7943H12.4029C12.0943 11.7943 11.8543 12.0274 11.8543 12.3223C11.8543 12.6377 12.0943 12.864 12.4029 12.864H13.1023V15.7166H12.2794C11.9777 15.7166 11.7309 15.9497 11.7309 16.2446C11.7309 16.56 11.9777 16.7794 12.2794 16.7794Z" fill="black"/>
</svg>
