<svg width="27" height="27" viewBox="0 0 27 27" fill="none" xmlns="http://www.w3.org/2000/svg">
<path d="M10.0408 20.3494H16.9592C18.3546 20.3494 19.075 19.616 19.075 18.2142V12.3212C19.075 11.4126 18.9582 10.9972 18.3935 10.4196L14.9992 6.97337C14.4476 6.41522 13.9933 6.28542 13.1755 6.28542H10.0408C8.65194 6.28542 7.92505 7.0188 7.92505 8.42714V18.2142C7.92505 19.616 8.65194 20.3494 10.0408 20.3494ZM10.1511 19.0514C9.5281 19.0514 9.21658 18.7269 9.21658 18.1298V8.50503C9.21658 7.91443 9.5281 7.58344 10.1576 7.58344H12.9094V11.114C12.9094 12.0551 13.3702 12.5094 14.3048 12.5094H17.7835V18.1298C17.7835 18.7269 17.4719 19.0514 16.8424 19.0514H10.1511ZM14.4281 11.3736C14.1555 11.3736 14.0387 11.2568 14.0387 10.9907V7.75218L17.6082 11.3736H14.4281ZM15.7845 14.2098H11.0987C10.8521 14.2098 10.6768 14.385 10.6768 14.6122C10.6768 14.8458 10.8521 15.0275 11.0987 15.0275H15.7845C16.0182 15.0275 16.1934 14.8458 16.1934 14.6122C16.1934 14.385 16.0182 14.2098 15.7845 14.2098ZM15.7845 16.3775H11.0987C10.8521 16.3775 10.6768 16.5592 10.6768 16.7928C10.6768 17.02 10.8521 17.1952 11.0987 17.1952H15.7845C16.0182 17.1952 16.1934 17.02 16.1934 16.7928C16.1934 16.5592 16.0182 16.3775 15.7845 16.3775Z" fill="black"/>
</svg>
