<svg width="21" height="21" viewBox="0 0 21 21" fill="none" xmlns="http://www.w3.org/2000/svg">
<g clip-path="url(#clip0)">
<path d="M0.194824 14.2913C0.194824 16.5898 1.9209 18.3159 4.39038 18.3159H16.6096C19.0791 18.3159 20.8052 16.5898 20.8052 14.2913C20.8052 13.5991 20.6086 12.9753 20.3694 12.4114L17.4299 5.52417C16.8318 4.11426 15.644 3.37085 14.0547 3.37085H6.95386C5.35596 3.37085 4.16821 4.11426 3.57861 5.52417L0.65625 12.3772C0.408447 12.9497 0.194824 13.582 0.194824 14.2913ZM3.27954 10.4546L5.14233 5.90869C5.43286 5.17383 6.09082 4.78931 6.97095 4.78931H14.0291C14.9177 4.78931 15.5757 5.17383 15.8662 5.90869L17.729 10.4546C17.3872 10.3435 17.0112 10.2751 16.6096 10.2751H4.39038C3.98877 10.2751 3.62134 10.3435 3.27954 10.4546ZM1.83545 14.2913C1.83545 12.9326 2.85229 11.9158 4.39038 11.9158H16.6096C18.1477 11.9158 19.1646 12.9326 19.1646 14.2913C19.1646 15.7952 18.1477 16.6667 16.6096 16.6667H4.39038C2.85229 16.6667 1.83545 15.6584 1.83545 14.2913ZM15.4475 14.2913C15.4475 14.915 15.9602 15.4106 16.5754 15.4021C17.1736 15.3936 17.6777 14.915 17.6777 14.2913C17.6777 13.7017 17.165 13.189 16.5754 13.189C15.9602 13.189 15.4475 13.7017 15.4475 14.2913Z" fill="black"/>
</g>
<defs>
<clipPath id="clip0">
<rect width="21" height="21" fill="white"/>
</clipPath>
</defs>
</svg>
