<svg width="21" height="21" viewBox="0 0 21 21" fill="none" xmlns="http://www.w3.org/2000/svg">
<g clip-path="url(#clip0)">
<path d="M10.4907 19.8945C15.751 19.8945 20.0928 15.5527 20.0928 10.3018C20.0928 5.05078 15.7417 0.708984 10.4814 0.708984C5.23047 0.708984 0.897949 5.05078 0.897949 10.3018C0.897949 15.5527 5.23975 19.8945 10.4907 19.8945ZM10.4907 17.9834C6.23242 17.9834 2.82764 14.5601 2.82764 10.3018C2.82764 6.04346 6.23242 2.62939 10.4814 2.62939C14.7397 2.62939 18.1631 6.04346 18.1724 10.3018C18.1816 14.5601 14.749 17.9834 10.4907 17.9834ZM10.4351 7.16602C11.1494 7.16602 11.7061 6.6001 11.7061 5.9043C11.7061 5.18066 11.1494 4.62402 10.4351 4.62402C9.73926 4.62402 9.17334 5.18066 9.17334 5.9043C9.17334 6.6001 9.73926 7.16602 10.4351 7.16602ZM8.84863 15.3486H12.6152C13.0327 15.3486 13.3667 15.0518 13.3667 14.625C13.3667 14.2261 13.0327 13.9106 12.6152 13.9106H11.5854V9.53174C11.5854 8.9751 11.3071 8.604 10.7876 8.604H9.01562C8.59814 8.604 8.27344 8.91943 8.27344 9.31836C8.27344 9.74512 8.59814 10.0513 9.01562 10.0513H9.96191V13.9106H8.84863C8.44043 13.9106 8.10645 14.2261 8.10645 14.625C8.10645 15.0518 8.44043 15.3486 8.84863 15.3486Z" fill="black"/>
</g>
<defs>
<clipPath id="clip0">
<rect width="21" height="21" fill="white"/>
</clipPath>
</defs>
</svg>
