<svg width="27" height="27" viewBox="0 0 27 27" fill="none" xmlns="http://www.w3.org/2000/svg">
<path d="M8.61117 19.0413H18.5263C19.6798 19.0413 20.3491 18.3719 20.3491 17.0929V10.943C20.3491 9.66403 19.6738 8.99465 18.3829 8.99465H12.8426C12.4123 8.99465 12.1553 8.89903 11.8206 8.62411L11.4859 8.34918C11.0616 8.00254 10.7508 7.88899 10.1232 7.88899H8.43187C7.30828 7.88899 6.64488 8.54641 6.64488 9.80747V17.0929C6.64488 18.3779 7.32023 19.0413 8.61117 19.0413ZM7.83422 9.90907C7.83422 9.3652 8.13902 9.07833 8.67094 9.07833H9.80648C10.2308 9.07833 10.4818 9.17993 10.8225 9.45485L11.1572 9.73575C11.5755 10.0704 11.8983 10.19 12.5258 10.19H18.3052C18.855 10.19 19.1598 10.4768 19.1598 11.0506V11.4032H7.83422V9.90907ZM8.68887 17.8519C8.13902 17.8519 7.83422 17.565 7.83422 16.9853V12.4491H19.1598V16.9913C19.1598 17.565 18.855 17.8519 18.3052 17.8519H8.68887Z" fill="black"/>
</svg>
