<svg width="21" height="21" viewBox="0 0 21 21" fill="none" xmlns="http://www.w3.org/2000/svg">
<g clip-path="url(#clip0)">
<path d="M18.2661 7.33301C18.8691 7.33301 19.1938 6.99902 19.1938 6.396V4.1416C19.1938 2.15625 18.1548 1.11719 16.1416 1.11719H13.8872C13.2842 1.11719 12.9502 1.44189 12.9502 2.04492C12.9502 2.63867 13.2842 2.96338 13.8872 2.96338H16.021C16.8652 2.96338 17.3477 3.40869 17.3477 4.30859V6.396C17.3477 6.99902 17.6724 7.33301 18.2661 7.33301ZM1.72461 7.33301C2.32764 7.33301 2.64307 6.99902 2.64307 6.396V4.30859C2.64307 3.40869 3.11621 2.96338 3.96973 2.96338H6.10352C6.70654 2.96338 7.04053 2.63867 7.04053 2.04492C7.04053 1.44189 6.70654 1.11719 6.10352 1.11719H3.84912C1.84521 1.11719 0.796875 2.14697 0.796875 4.1416V6.396C0.796875 6.99902 1.13086 7.33301 1.72461 7.33301ZM3.84912 19.5142H6.10352C6.70654 19.5142 7.04053 19.1802 7.04053 18.5864C7.04053 17.9927 6.70654 17.6587 6.10352 17.6587H3.96973C3.11621 17.6587 2.64307 17.2227 2.64307 16.3228V14.2354C2.64307 13.6323 2.31836 13.2983 1.72461 13.2983C1.12158 13.2983 0.796875 13.6323 0.796875 14.2354V16.4897C0.796875 18.4751 1.84521 19.5142 3.84912 19.5142ZM13.8872 19.5142H16.1416C18.1548 19.5142 19.1938 18.4751 19.1938 16.4897V14.2354C19.1938 13.6323 18.8599 13.2983 18.2661 13.2983C17.6631 13.2983 17.3477 13.6323 17.3477 14.2354V16.3228C17.3477 17.2227 16.8652 17.6587 16.021 17.6587H13.8872C13.2842 17.6587 12.9502 17.9927 12.9502 18.5864C12.9502 19.1802 13.2842 19.5142 13.8872 19.5142Z" fill="black"/>
</g>
<defs>
<clipPath id="clip0">
<rect width="21" height="21" fill="white"/>
</clipPath>
</defs>
</svg>
