<svg width="21" height="21" viewBox="0 0 21 21" fill="none" xmlns="http://www.w3.org/2000/svg">
<path fill-rule="evenodd" clip-rule="evenodd" d="M16.4404 15.4777C17.5699 14.1312 18.25 12.395 18.25 10.5C18.25 6.21979 14.7802 2.75 10.5 2.75C6.21979 2.75 2.75 6.21979 2.75 10.5C2.75 12.395 3.43015 14.1312 4.55964 15.4777C5.09145 15.2761 9 13.7353 9 12C9 12 8.20591 11.183 7.86564 8.51962C7.52538 5.85624 8.86997 5.16763 10.5395 5.16763L10.5447 5.31368L10.55 5.16763C12.2195 5.16763 13.5641 5.85624 13.2238 8.51962C12.8836 11.183 12 12 12 12C12 13.7353 15.9085 15.2761 16.4404 15.4777ZM5.08815 16.0475C5.23624 16.1824 5.40547 16.3344 5.58765 16.4946C5.41474 16.3527 5.24808 16.2035 5.08815 16.0475ZM10.5 20C15.7467 20 20 15.7467 20 10.5C20 5.25329 15.7467 1 10.5 1C5.25329 1 1 5.25329 1 10.5C1 15.7467 5.25329 20 10.5 20Z" fill="#2B353D"/>
</svg>
