<svg width="27" height="27" viewBox="0 0 27 27" fill="none" xmlns="http://www.w3.org/2000/svg">
<path d="M18.9508 11.6254C19.3484 11.6254 19.5626 11.4052 19.5626 11.0075V9.52091C19.5626 8.21173 18.8774 7.52655 17.5499 7.52655H16.0633C15.6656 7.52655 15.4454 7.74067 15.4454 8.13832C15.4454 8.52985 15.6656 8.74397 16.0633 8.74397H17.4703C18.027 8.74397 18.3452 9.03762 18.3452 9.63103V11.0075C18.3452 11.4052 18.5593 11.6254 18.9508 11.6254ZM8.043 11.6254C8.44065 11.6254 8.64865 11.4052 8.64865 11.0075V9.63103C8.64865 9.03762 8.96065 8.74397 9.52347 8.74397H10.9305C11.3282 8.74397 11.5484 8.52985 11.5484 8.13832C11.5484 7.74067 11.3282 7.52655 10.9305 7.52655H9.44394C8.12253 7.52655 7.43123 8.20561 7.43123 9.52091V11.0075C7.43123 11.4052 7.65147 11.6254 8.043 11.6254ZM9.44394 19.6579H10.9305C11.3282 19.6579 11.5484 19.4377 11.5484 19.0461C11.5484 18.6546 11.3282 18.4344 10.9305 18.4344H9.52347C8.96065 18.4344 8.64865 18.1468 8.64865 17.5534V16.1769C8.64865 15.7793 8.43453 15.5591 8.043 15.5591C7.64535 15.5591 7.43123 15.7793 7.43123 16.1769V17.6635C7.43123 18.9727 8.12253 19.6579 9.44394 19.6579ZM16.0633 19.6579H17.5499C18.8774 19.6579 19.5626 18.9727 19.5626 17.6635V16.1769C19.5626 15.7793 19.3423 15.5591 18.9508 15.5591C18.5532 15.5591 18.3452 15.7793 18.3452 16.1769V17.5534C18.3452 18.1468 18.027 18.4344 17.4703 18.4344H16.0633C15.6656 18.4344 15.4454 18.6546 15.4454 19.0461C15.4454 19.4377 15.6656 19.6579 16.0633 19.6579Z" fill="black"/>
</svg>
