<svg width="27" height="27" viewBox="0 0 27 27" fill="none" xmlns="http://www.w3.org/2000/svg">
<path fill-rule="evenodd" clip-rule="evenodd" d="M13.5 21C17.6421 21 21 17.6421 21 13.5C21 9.35786 17.6421 6 13.5 6C9.35786 6 6 9.35786 6 13.5C6 17.6421 9.35786 21 13.5 21ZM17.9955 17.3536C18.8841 16.3179 19.4211 14.9717 19.4211 13.5C19.4211 10.2299 16.7701 7.57895 13.5 7.57895C10.2299 7.57895 7.57895 10.2299 7.57895 13.5C7.57895 14.9717 8.11585 16.3179 9.00447 17.3536C9.80398 17.0313 12.3158 15.9203 12.3158 14.6842C12.3158 14.6842 11.6889 14.0392 11.4202 11.9365C11.1516 9.83388 12.2131 9.29024 13.5312 9.29024L13.5353 9.40554L13.5395 9.29024C14.8575 9.29024 15.919 9.83388 15.6504 11.9365C15.3818 14.0392 14.6842 14.6842 14.6842 14.6842C14.6842 15.9203 17.196 17.0313 17.9955 17.3536Z" fill="#2B353D"/>
</svg>
