<svg width="21" height="21" viewBox="0 0 21 21" fill="none" xmlns="http://www.w3.org/2000/svg">
<g clip-path="url(#clip0)">
<path d="M5.44556 19.5933H14.5544C16.3916 19.5933 17.3401 18.6277 17.3401 16.782V9.02319C17.3401 7.8269 17.1863 7.28003 16.4429 6.51953L11.9739 1.98218C11.2476 1.24731 10.6494 1.07642 9.57275 1.07642H5.44556C3.61694 1.07642 2.65991 2.04199 2.65991 3.89624V16.782C2.65991 18.6277 3.61694 19.5933 5.44556 19.5933ZM5.59082 17.8843C4.77051 17.8843 4.36035 17.457 4.36035 16.6709V3.99878C4.36035 3.22119 4.77051 2.7854 5.59937 2.7854H9.22241V7.43384C9.22241 8.67285 9.8291 9.271 11.0596 9.271H15.6396V16.6709C15.6396 17.457 15.2295 17.8843 14.4006 17.8843H5.59082ZM11.2219 7.77563C10.863 7.77563 10.7092 7.62183 10.7092 7.27148V3.00757L15.4089 7.77563H11.2219ZM13.0078 11.5098H6.83838C6.51367 11.5098 6.28296 11.7405 6.28296 12.0396C6.28296 12.3472 6.51367 12.5864 6.83838 12.5864H13.0078C13.3154 12.5864 13.5461 12.3472 13.5461 12.0396C13.5461 11.7405 13.3154 11.5098 13.0078 11.5098ZM13.0078 14.3638H6.83838C6.51367 14.3638 6.28296 14.603 6.28296 14.9106C6.28296 15.2097 6.51367 15.4404 6.83838 15.4404H13.0078C13.3154 15.4404 13.5461 15.2097 13.5461 14.9106C13.5461 14.603 13.3154 14.3638 13.0078 14.3638Z" fill="black"/>
</g>
<defs>
<clipPath id="clip0">
<rect width="21" height="21" fill="white"/>
</clipPath>
</defs>
</svg>
