<svg width="27" height="27" viewBox="0 0 27 27" fill="none" xmlns="http://www.w3.org/2000/svg">
<path fill-rule="evenodd" clip-rule="evenodd" d="M8.50864 8.91202C7.42947 11.0832 6.50576 14.1199 7.2965 16.3089C8.3296 19.169 11.2818 20.8089 13.8965 20.8089H14C16.6147 20.8089 19.5669 19.169 20.6 16.3089C21.6352 13.443 19.7319 9.12429 18.3883 7.19682C18.2786 7.03941 18.0926 6.97487 17.9166 7.0088C17.844 7.02186 17.7728 7.05202 17.7091 7.09973L16.4499 8.04412C16.2482 8.19542 16.1896 8.4739 16.3054 8.69793C16.3152 8.71688 16.3251 8.73621 16.3352 8.75588C17.064 10.2347 18.2255 13.3737 17.6 14.9089C16.9251 16.5655 15.4233 17.6089 14 17.6089H13.8965C12.4732 17.6089 10.9714 16.5655 10.2965 14.9089C9.66285 13.3536 10.8632 10.1524 11.5897 8.69873C11.7024 8.47317 11.6451 8.19541 11.4434 8.04411L10.1842 7.09972C9.96814 6.93768 9.66262 6.97527 9.50819 7.19682C9.21261 7.62086 8.88994 8.16062 8.57742 8.7752C8.56364 8.80052 8.54998 8.82573 8.53645 8.85082C8.52562 8.87088 8.51637 8.89132 8.50864 8.91202ZM8.50864 8.91202C8.4204 9.14813 8.52999 9.41718 8.7659 9.52653L10.2846 10.2305C10.5446 10.351 10.8529 10.2291 10.9704 9.96771C11.1666 9.53122 11.403 9.0496 11.5847 8.69793C11.7004 8.4739 11.6419 8.19542 11.4401 8.04412L10.1809 7.09973C9.96487 6.93769 9.66103 6.97811 9.51153 7.20302C9.2277 7.63004 8.87554 8.22732 8.57742 8.7752C8.55443 8.82041 8.5315 8.86602 8.50864 8.91202ZM16.3352 8.75588C16.5124 9.10137 16.734 9.55474 16.9197 9.96771C17.0371 10.2291 17.3455 10.351 17.6055 10.2305L19.1242 9.52653C19.3808 9.40759 19.4879 9.09973 19.3536 8.85082C19.0472 8.28289 18.6755 7.64978 18.3785 7.20302C18.2731 7.04433 18.0907 6.97749 17.9166 7.0088C17.8449 7.02263 17.7749 7.0528 17.7123 7.09972L16.4531 8.04411C16.2514 8.19541 16.1941 8.47317 16.3068 8.69873C16.3162 8.71749 16.3257 8.73655 16.3352 8.75588Z" fill="black"/>
<path d="M8.50864 8.91202C7.42947 11.0832 6.50576 14.1199 7.2965 16.3089C8.3296 19.169 11.2818 20.8089 13.8965 20.8089H14C16.6147 20.8089 19.5669 19.169 20.6 16.3089C21.6352 13.443 19.7319 9.12429 18.3883 7.19682C18.2786 7.03941 18.0926 6.97487 17.9166 7.0088M8.50864 8.91202C8.51637 8.89132 8.52562 8.87088 8.53645 8.85082C8.54998 8.82573 8.56364 8.80052 8.57742 8.7752M8.50864 8.91202C8.4204 9.14813 8.52999 9.41718 8.7659 9.52653L10.2846 10.2305C10.5446 10.351 10.8529 10.2291 10.9704 9.96771C11.1666 9.53122 11.403 9.0496 11.5847 8.69793C11.7004 8.4739 11.6419 8.19542 11.4401 8.04412L10.1809 7.09973C9.96487 6.93769 9.66103 6.97811 9.51153 7.20302C9.2277 7.63004 8.87554 8.22732 8.57742 8.7752M8.50864 8.91202C8.5315 8.86602 8.55443 8.82041 8.57742 8.7752M17.9166 7.0088C17.844 7.02186 17.7728 7.05202 17.7091 7.09973L16.4499 8.04412C16.2482 8.19542 16.1896 8.4739 16.3054 8.69793C16.3152 8.71688 16.3251 8.73621 16.3352 8.75588M17.9166 7.0088C18.0907 6.97749 18.2731 7.04433 18.3785 7.20302C18.6755 7.64978 19.0472 8.28289 19.3536 8.85082C19.4879 9.09973 19.3808 9.40759 19.1242 9.52653L17.6055 10.2305C17.3455 10.351 17.0371 10.2291 16.9197 9.96771C16.734 9.55474 16.5124 9.10137 16.3352 8.75588M17.9166 7.0088C17.8449 7.02263 17.7749 7.0528 17.7123 7.09972L16.4531 8.04411C16.2514 8.19541 16.1941 8.47317 16.3068 8.69873C16.3162 8.71749 16.3257 8.73655 16.3352 8.75588M16.3352 8.75588C17.064 10.2347 18.2255 13.3737 17.6 14.9089C16.9251 16.5655 15.4233 17.6089 14 17.6089H13.8965C12.4732 17.6089 10.9714 16.5655 10.2965 14.9089C9.66285 13.3536 10.8632 10.1524 11.5897 8.69873C11.7024 8.47317 11.6451 8.19541 11.4434 8.04411L10.1842 7.09972C9.96814 6.93768 9.66262 6.97527 9.50819 7.19682C9.21261 7.62086 8.88994 8.16062 8.57742 8.7752" stroke="black" stroke-width="0.5"/>
</svg>
