<svg width="27" height="27" viewBox="0 0 27 27" fill="none" xmlns="http://www.w3.org/2000/svg">
<path d="M5.66807 15.9614C5.66807 17.7083 6.97988 19.0201 8.85669 19.0201H18.1433C20.0201 19.0201 21.3319 17.7083 21.3319 15.9614C21.3319 15.4354 21.1826 14.9613 21.0007 14.5327L18.7667 9.29839C18.3122 8.22686 17.4095 7.66187 16.2016 7.66187H10.8049C9.59053 7.66187 8.68784 8.22686 8.23975 9.29839L6.01875 14.5067C5.83042 14.9418 5.66807 15.4224 5.66807 15.9614ZM8.01245 13.0455L9.42817 9.59062C9.64897 9.03213 10.149 8.73989 10.8179 8.73989H16.1821C16.8575 8.73989 17.3575 9.03213 17.5783 9.59062L18.994 13.0455C18.7343 12.9611 18.4485 12.9091 18.1433 12.9091H8.85669C8.55146 12.9091 8.27222 12.9611 8.01245 13.0455ZM6.91494 15.9614C6.91494 14.9288 7.68774 14.156 8.85669 14.156H18.1433C19.3123 14.156 20.0851 14.9288 20.0851 15.9614C20.0851 17.1043 19.3123 17.7667 18.1433 17.7667H8.85669C7.68774 17.7667 6.91494 17.0004 6.91494 15.9614ZM17.2601 15.9614C17.2601 16.4354 17.6498 16.8121 18.1173 16.8056C18.5719 16.7991 18.9551 16.4354 18.9551 15.9614C18.9551 15.5133 18.5654 15.1236 18.1173 15.1236C17.6498 15.1236 17.2601 15.5133 17.2601 15.9614Z" fill="black"/>
</svg>
